<svg width="246" height="69" viewBox="0 0 246 69" fill="none" xmlns="http://www.w3.org/2000/svg">
<path d="M7.01946 13.3496L44.2849 34.8646L7.01941 56.3797L7.01946 13.3496Z" stroke="#1ED760" stroke-width="2.5"/>
<path d="M11.9943 22.6973L33.2888 34.9915L11.9943 47.2855V22.6973Z" stroke="#1ED760" stroke-width="2.5"/>
<path d="M2.00005 5L53.962 35.0001L2 65L2.00005 5Z" stroke="#1ED760" stroke-width="2.5"/>
<path d="M87.25 52.85C84.3833 52.85 81.7 52.3833 79.2 51.45C76.7 50.4833 74.8667 49.4 73.7 48.2V39.2C75.0333 41.3667 76.9667 43.0833 79.5 44.35C82.0333 45.6167 84.5 46.25 86.9 46.25C88.8333 46.25 90.3 45.9 91.3 45.2C92.3333 44.4667 92.85 43.4833 92.85 42.25C92.85 41.5167 92.7 40.9 92.4 40.4C92.1 39.9 91.4833 39.4167 90.55 38.95C89.6167 38.4833 88.2167 38 86.35 37.5L83.4 36.7C80.2333 35.8667 77.8167 34.65 76.15 33.05C74.5167 31.45 73.7 29.2333 73.7 26.4C73.7 24.5 74.2333 22.7333 75.3 21.1C76.4 19.4333 77.9833 18.1167 80.05 17.15C82.1167 16.15 84.5833 15.65 87.45 15.65C89.75 15.65 91.9 15.9833 93.9 16.65C95.9 17.2833 97.4833 18.05 98.65 18.95V27.15C97.7167 25.8833 96.2333 24.7667 94.2 23.8C92.1667 22.8 90.0167 22.3 87.75 22.3C85.65 22.3 84.05 22.6833 82.95 23.45C81.85 24.2167 81.3 25.15 81.3 26.25C81.3 26.9167 81.45 27.4833 81.75 27.95C82.0833 28.3833 82.7167 28.8167 83.65 29.25C84.6167 29.65 86.0667 30.1 88 30.6L90.95 31.4C94.05 32.2 96.4167 33.4333 98.05 35.1C99.6833 36.7667 100.5 39 100.5 41.8C100.5 43.8667 99.9667 45.75 98.9 47.45C97.8333 49.1167 96.3 50.4333 94.3 51.4C92.3 52.3667 89.95 52.85 87.25 52.85ZM117.796 52.7C115.163 52.7 112.796 52.1167 110.696 50.95C108.63 49.7833 107.013 48.2 105.846 46.2C104.713 44.2 104.146 41.9833 104.146 39.55C104.146 37.0833 104.713 34.85 105.846 32.85C107.013 30.85 108.63 29.2667 110.696 28.1C112.796 26.9333 115.163 26.35 117.796 26.35C120.63 26.35 122.896 27.0167 124.596 28.35V35.4C124.096 34.7 123.263 34.05 122.096 33.45C120.963 32.8167 119.63 32.5 118.096 32.5C115.996 32.5 114.33 33.1667 113.096 34.5C111.863 35.8 111.246 37.4833 111.246 39.55C111.246 41.6167 111.863 43.3167 113.096 44.65C114.33 45.95 115.996 46.6 118.096 46.6C119.496 46.6 120.763 46.3667 121.896 45.9C123.03 45.4333 123.93 44.7833 124.596 43.95V50.75C122.763 52.05 120.496 52.7 117.796 52.7ZM141.818 52.85C139.184 52.85 136.834 52.2667 134.768 51.1C132.701 49.9333 131.101 48.35 129.968 46.35C128.834 44.3167 128.268 42.0667 128.268 39.6C128.268 37.1 128.834 34.8333 129.968 32.8C131.101 30.7333 132.668 29.1167 134.668 27.95C136.701 26.7833 138.968 26.2 141.468 26.2C144.068 26.2 146.368 26.8 148.368 28C150.368 29.1667 151.918 30.7833 153.018 32.85C154.118 34.8833 154.668 37.1333 154.668 39.6L154.618 41.4H135.118C135.384 43.2333 136.134 44.6833 137.368 45.75C138.601 46.7833 140.151 47.3 142.018 47.3C143.451 47.3 144.634 46.9833 145.568 46.35C146.534 45.7167 147.168 44.8667 147.468 43.8H154.368C153.601 46.6333 152.101 48.85 149.868 50.45C147.634 52.05 144.951 52.85 141.818 52.85ZM147.518 36.7C147.384 35.3 146.751 34.1333 145.618 33.2C144.484 32.2667 143.101 31.8 141.468 31.8C139.901 31.8 138.551 32.25 137.418 33.15C136.284 34.05 135.551 35.2333 135.218 36.7H147.518ZM159.799 27.1H166.899V32.5C167.699 30.7667 168.816 29.3167 170.249 28.15C171.716 26.95 173.516 26.35 175.649 26.35C178.216 26.35 180.133 27.1667 181.399 28.8C182.699 30.4 183.349 32.5333 183.349 35.2V52H176.249V37.25C176.249 35.7167 175.966 34.55 175.399 33.75C174.866 32.95 173.949 32.55 172.649 32.55C171.249 32.55 170.016 33.2 168.949 34.5C167.916 35.7667 167.233 37.2 166.899 38.8V52H159.799V27.1ZM196.743 50.1L186.093 27.1H193.943L200.543 42.9L207.093 27.1H214.243L199.043 61.7H191.393L196.743 50.1ZM224.254 39.1L215.204 27.1H223.104L228.604 34.65L234.054 27.1H241.754L232.754 39.05L242.604 52H234.604L228.504 43.6L222.504 52H214.604L224.254 39.1Z" fill="#1ED760"/>
</svg>
