<svg width="519" height="200" viewBox="0 0 519 200" fill="none" xmlns="http://www.w3.org/2000/svg">
<path d="M74.0042 54.251L152.755 99.7173L74.0041 145.184L74.0042 54.251Z" stroke="#1ED760" stroke-width="6"/>
<path d="M84.5195 74.001L129.52 99.9817L84.5195 125.962L84.5195 74.001Z" stroke="#1ED760" stroke-width="6"/>
<path d="M63.3979 36.6025L173.206 100L63.3978 163.397L63.3979 36.6025Z" stroke="#1ED760" stroke-width="6"/>
<path d="M238.414 133.53C233.254 133.53 228.424 132.69 223.924 131.01C219.424 129.27 216.124 127.32 214.024 125.16V108.96C216.424 112.86 219.904 115.95 224.464 118.23C229.024 120.51 233.464 121.65 237.784 121.65C241.264 121.65 243.904 121.02 245.704 119.76C247.564 118.44 248.494 116.67 248.494 114.45C248.494 113.13 248.224 112.02 247.684 111.12C247.144 110.22 246.034 109.35 244.354 108.51C242.674 107.67 240.154 106.8 236.794 105.9L231.484 104.46C225.784 102.96 221.434 100.77 218.434 97.89C215.494 95.01 214.024 91.02 214.024 85.92C214.024 82.5 214.984 79.32 216.904 76.38C218.884 73.38 221.734 71.01 225.454 69.27C229.174 67.47 233.614 66.57 238.774 66.57C242.914 66.57 246.784 67.17 250.384 68.37C253.984 69.51 256.834 70.89 258.934 72.51V87.27C257.254 84.99 254.584 82.98 250.924 81.24C247.264 79.44 243.394 78.54 239.314 78.54C235.534 78.54 232.654 79.23 230.674 80.61C228.694 81.99 227.704 83.67 227.704 85.65C227.704 86.85 227.974 87.87 228.514 88.71C229.114 89.49 230.254 90.27 231.934 91.05C233.674 91.77 236.284 92.58 239.764 93.48L245.074 94.92C250.654 96.36 254.914 98.58 257.854 101.58C260.794 104.58 262.264 108.6 262.264 113.64C262.264 117.36 261.304 120.75 259.384 123.81C257.464 126.81 254.704 129.18 251.104 130.92C247.504 132.66 243.274 133.53 238.414 133.53ZM293.398 133.26C288.658 133.26 284.398 132.21 280.618 130.11C276.898 128.01 273.988 125.16 271.888 121.56C269.848 117.96 268.828 113.97 268.828 109.59C268.828 105.15 269.848 101.13 271.888 97.53C273.988 93.93 276.898 91.08 280.618 88.98C284.398 86.88 288.658 85.83 293.398 85.83C298.498 85.83 302.578 87.03 305.638 89.43V102.12C304.738 100.86 303.238 99.69 301.138 98.61C299.098 97.47 296.698 96.9 293.938 96.9C290.158 96.9 287.158 98.1 284.938 100.5C282.718 102.84 281.608 105.87 281.608 109.59C281.608 113.31 282.718 116.37 284.938 118.77C287.158 121.11 290.158 122.28 293.938 122.28C296.458 122.28 298.738 121.86 300.778 121.02C302.818 120.18 304.438 119.01 305.638 117.51V129.75C302.338 132.09 298.258 133.26 293.398 133.26ZM336.636 133.53C331.896 133.53 327.666 132.48 323.946 130.38C320.226 128.28 317.346 125.43 315.306 121.83C313.266 118.17 312.246 114.12 312.246 109.68C312.246 105.18 313.266 101.1 315.306 97.44C317.346 93.72 320.166 90.81 323.766 88.71C327.426 86.61 331.506 85.56 336.006 85.56C340.686 85.56 344.826 86.64 348.426 88.8C352.026 90.9 354.816 93.81 356.796 97.53C358.776 101.19 359.766 105.24 359.766 109.68L359.676 112.92H324.576C325.056 116.22 326.406 118.83 328.626 120.75C330.846 122.61 333.636 123.54 336.996 123.54C339.576 123.54 341.706 122.97 343.386 121.83C345.126 120.69 346.266 119.16 346.806 117.24H359.226C357.846 122.34 355.146 126.33 351.126 129.21C347.106 132.09 342.276 133.53 336.636 133.53ZM346.896 104.46C346.656 101.94 345.516 99.84 343.476 98.16C341.436 96.48 338.946 95.64 336.006 95.64C333.186 95.64 330.756 96.45 328.716 98.07C326.676 99.69 325.356 101.82 324.756 104.46H346.896ZM369.003 87.18H381.783V96.9C383.223 93.78 385.233 91.17 387.813 89.07C390.453 86.91 393.693 85.83 397.533 85.83C402.153 85.83 405.603 87.3 407.883 90.24C410.223 93.12 411.393 96.96 411.393 101.76V132H398.613V105.45C398.613 102.69 398.103 100.59 397.083 99.15C396.123 97.71 394.473 96.99 392.133 96.99C389.613 96.99 387.393 98.16 385.473 100.5C383.613 102.78 382.383 105.36 381.783 108.24V132H369.003V87.18ZM435.501 128.58L416.331 87.18H430.461L442.341 115.62L454.131 87.18H467.001L439.641 149.46H425.871L435.501 128.58ZM485.02 108.78L468.73 87.18H482.95L492.85 100.77L502.66 87.18H516.52L500.32 108.69L518.05 132H503.65L492.67 116.88L481.87 132H467.65L485.02 108.78Z" fill="#1ED760"/>
<path d="M238.414 133.53C233.254 133.53 228.424 132.69 223.924 131.01C219.424 129.27 216.124 127.32 214.024 125.16V108.96C216.424 112.86 219.904 115.95 224.464 118.23C229.024 120.51 233.464 121.65 237.784 121.65C241.264 121.65 243.904 121.02 245.704 119.76C247.564 118.44 248.494 116.67 248.494 114.45C248.494 113.13 248.224 112.02 247.684 111.12C247.144 110.22 246.034 109.35 244.354 108.51C242.674 107.67 240.154 106.8 236.794 105.9L231.484 104.46C225.784 102.96 221.434 100.77 218.434 97.89C215.494 95.01 214.024 91.02 214.024 85.92C214.024 82.5 214.984 79.32 216.904 76.38C218.884 73.38 221.734 71.01 225.454 69.27C229.174 67.47 233.614 66.57 238.774 66.57C242.914 66.57 246.784 67.17 250.384 68.37C253.984 69.51 256.834 70.89 258.934 72.51V87.27C257.254 84.99 254.584 82.98 250.924 81.24C247.264 79.44 243.394 78.54 239.314 78.54C235.534 78.54 232.654 79.23 230.674 80.61C228.694 81.99 227.704 83.67 227.704 85.65C227.704 86.85 227.974 87.87 228.514 88.71C229.114 89.49 230.254 90.27 231.934 91.05C233.674 91.77 236.284 92.58 239.764 93.48L245.074 94.92C250.654 96.36 254.914 98.58 257.854 101.58C260.794 104.58 262.264 108.6 262.264 113.64C262.264 117.36 261.304 120.75 259.384 123.81C257.464 126.81 254.704 129.18 251.104 130.92C247.504 132.66 243.274 133.53 238.414 133.53ZM293.398 133.26C288.658 133.26 284.398 132.21 280.618 130.11C276.898 128.01 273.988 125.16 271.888 121.56C269.848 117.96 268.828 113.97 268.828 109.59C268.828 105.15 269.848 101.13 271.888 97.53C273.988 93.93 276.898 91.08 280.618 88.98C284.398 86.88 288.658 85.83 293.398 85.83C298.498 85.83 302.578 87.03 305.638 89.43V102.12C304.738 100.86 303.238 99.69 301.138 98.61C299.098 97.47 296.698 96.9 293.938 96.9C290.158 96.9 287.158 98.1 284.938 100.5C282.718 102.84 281.608 105.87 281.608 109.59C281.608 113.31 282.718 116.37 284.938 118.77C287.158 121.11 290.158 122.28 293.938 122.28C296.458 122.28 298.738 121.86 300.778 121.02C302.818 120.18 304.438 119.01 305.638 117.51V129.75C302.338 132.09 298.258 133.26 293.398 133.26ZM336.636 133.53C331.896 133.53 327.666 132.48 323.946 130.38C320.226 128.28 317.346 125.43 315.306 121.83C313.266 118.17 312.246 114.12 312.246 109.68C312.246 105.18 313.266 101.1 315.306 97.44C317.346 93.72 320.166 90.81 323.766 88.71C327.426 86.61 331.506 85.56 336.006 85.56C340.686 85.56 344.826 86.64 348.426 88.8C352.026 90.9 354.816 93.81 356.796 97.53C358.776 101.19 359.766 105.24 359.766 109.68L359.676 112.92H324.576C325.056 116.22 326.406 118.83 328.626 120.75C330.846 122.61 333.636 123.54 336.996 123.54C339.576 123.54 341.706 122.97 343.386 121.83C345.126 120.69 346.266 119.16 346.806 117.24H359.226C357.846 122.34 355.146 126.33 351.126 129.21C347.106 132.09 342.276 133.53 336.636 133.53ZM346.896 104.46C346.656 101.94 345.516 99.84 343.476 98.16C341.436 96.48 338.946 95.64 336.006 95.64C333.186 95.64 330.756 96.45 328.716 98.07C326.676 99.69 325.356 101.82 324.756 104.46H346.896ZM369.003 87.18H381.783V96.9C383.223 93.78 385.233 91.17 387.813 89.07C390.453 86.91 393.693 85.83 397.533 85.83C402.153 85.83 405.603 87.3 407.883 90.24C410.223 93.12 411.393 96.96 411.393 101.76V132H398.613V105.45C398.613 102.69 398.103 100.59 397.083 99.15C396.123 97.71 394.473 96.99 392.133 96.99C389.613 96.99 387.393 98.16 385.473 100.5C383.613 102.78 382.383 105.36 381.783 108.24V132H369.003V87.18ZM435.501 128.58L416.331 87.18H430.461L442.341 115.62L454.131 87.18H467.001L439.641 149.46H425.871L435.501 128.58ZM485.02 108.78L468.73 87.18H482.95L492.85 100.77L502.66 87.18H516.52L500.32 108.69L518.05 132H503.65L492.67 116.88L481.87 132H467.65L485.02 108.78Z" fill="#1ED760"/>
</svg>
